<svg width="24" height="24" viewBox="0 0 24 24" fill="none" xmlns="http://www.w3.org/2000/svg">
<g id="ant-design:fullscreen-outlined">
<path id="Vector" d="M6.79688 5.54072L7.82579 4.51181C7.85057 4.48691 7.86787 4.45554 7.87571 4.42129C7.88355 4.38704 7.88163 4.35128 7.87015 4.31807C7.85867 4.28486 7.83811 4.25554 7.81079 4.23344C7.78348 4.21134 7.75051 4.19735 7.71563 4.19306L3.96095 3.75009C3.84141 3.73603 3.73829 3.83681 3.75235 3.95869L4.19532 7.71337C4.21407 7.86806 4.40391 7.93369 4.51407 7.82353L5.53829 6.79931L8.67188 9.93056C8.74454 10.0032 8.86407 10.0032 8.93673 9.93056L9.93048 8.93916C10.0031 8.8665 10.0031 8.74697 9.93048 8.67431L6.79688 5.54072ZM15.0633 9.93056C15.1359 10.0032 15.2555 10.0032 15.3281 9.93056L18.4617 6.79931L19.4859 7.82353C19.5109 7.84831 19.5422 7.86561 19.5765 7.87345C19.6107 7.8813 19.6465 7.87937 19.6797 7.86789C19.7129 7.85642 19.7422 7.83585 19.7643 7.80853C19.7864 7.78122 19.8004 7.74825 19.8047 7.71337L20.2477 3.96103C20.2617 3.8415 20.1609 3.73837 20.0391 3.75244L16.2844 4.19541C16.1297 4.21416 16.0641 4.404 16.1742 4.51416L17.2031 5.54306L14.0695 8.67197C14.0346 8.70721 14.0151 8.7548 14.0151 8.80439C14.0151 8.85398 14.0346 8.90157 14.0695 8.93681L15.0633 9.93056ZM19.8047 16.2868C19.7859 16.1321 19.5961 16.0665 19.4859 16.1767L18.4617 17.2009L15.3281 14.0696C15.2929 14.0347 15.2453 14.0152 15.1957 14.0152C15.1461 14.0152 15.0985 14.0347 15.0633 14.0696L14.0695 15.061C14.0346 15.0963 14.0151 15.1439 14.0151 15.1935C14.0151 15.243 14.0346 15.2906 14.0695 15.3259L17.2031 18.4595L16.1742 19.4884C16.1494 19.5133 16.1321 19.5446 16.1243 19.5789C16.1165 19.6131 16.1184 19.6489 16.1299 19.6821C16.1413 19.7153 16.1619 19.7446 16.1892 19.7667C16.2165 19.7888 16.2495 19.8028 16.2844 19.8071L20.0391 20.2501C20.1586 20.2642 20.2617 20.1634 20.2477 20.0415L19.8047 16.2868ZM8.93673 14.0696C8.90149 14.0347 8.8539 14.0152 8.8043 14.0152C8.75471 14.0152 8.70712 14.0347 8.67188 14.0696L5.53829 17.2009L4.51407 16.1767C4.48916 16.1519 4.4578 16.1346 4.42355 16.1267C4.3893 16.1189 4.35354 16.1208 4.32033 16.1323C4.28712 16.1438 4.2578 16.1643 4.2357 16.1917C4.2136 16.219 4.19961 16.2519 4.19532 16.2868L3.75235 20.0392C3.73829 20.1587 3.83907 20.2618 3.96095 20.2477L7.71563 19.8048C7.87032 19.786 7.93595 19.5962 7.82579 19.486L6.79688 18.4595L9.93048 15.3282C10.0031 15.2556 10.0031 15.136 9.93048 15.0634L8.93673 14.0696Z" fill="black"/>
</g>
</svg>
