<svg width="26" height="26" viewBox="0 0 26 26" fill="none" xmlns="http://www.w3.org/2000/svg">
<g id="noun_Email_247564 1">
<g id="Group">
<path id="Vector" fill-rule="evenodd" clip-rule="evenodd" d="M2.62582 6.39212L2.75938 6.24186C3.24889 5.72998 3.97814 5.47388 4.94646 5.47388H21.5416C22.4541 5.47388 23.1553 5.69659 23.6452 6.14169L23.6619 6.15838C23.7621 6.24754 23.8626 6.35305 23.9624 6.47559C23.9624 6.48695 23.9681 6.49797 23.9791 6.50899L23.9958 6.52568C24.3634 6.98213 24.5467 7.62757 24.5467 8.46233V17.9119C24.5357 19.9153 23.534 20.917 21.5416 20.917H4.94646C2.95405 20.906 1.95801 19.9043 1.95801 17.9119V8.46233C1.95801 7.56079 2.18072 6.87061 2.62582 6.39212ZM22.0925 7.11002C21.9256 7.06561 21.7419 7.04858 21.5419 7.05993H4.94646C4.82392 7.04891 4.70705 7.05425 4.59586 7.07663L13.1939 15.7916L22.0925 7.11002ZM3.54406 8.27869C3.53304 8.33445 3.53304 8.39555 3.54406 8.46233V17.9119C3.54406 18.8582 4.01153 19.331 4.94646 19.331H21.5416C22.4875 19.331 22.9607 18.8582 22.9607 17.9119V8.47903L13.7449 17.4778C13.5779 17.6337 13.3889 17.7115 13.1776 17.7115C12.9549 17.7005 12.7655 17.6224 12.6099 17.4778L3.54406 8.27869Z" fill="url(#paint0_linear_1238_1319)"/>
<path id="Vector_2" fill-rule="evenodd" clip-rule="evenodd" d="M2.62598 6.39196C2.64835 6.35857 2.67606 6.32518 2.70945 6.29178C2.7208 6.26941 2.73717 6.25272 2.75954 6.2417L2.62598 6.39196Z" fill="url(#paint1_linear_1238_1319)"/>
</g>
</g>
<defs>
<linearGradient id="paint0_linear_1238_1319" x1="13.2524" y1="5.47388" x2="13.2524" y2="20.917" gradientUnits="userSpaceOnUse">
<stop stop-color="#B356C1"/>
<stop offset="1" stop-color="#9734A6"/>
</linearGradient>
<linearGradient id="paint1_linear_1238_1319" x1="2.69276" y1="6.2417" x2="2.69276" y2="6.39196" gradientUnits="userSpaceOnUse">
<stop stop-color="#B356C1"/>
<stop offset="1" stop-color="#9734A6"/>
</linearGradient>
</defs>
</svg>
