<svg width="19" height="19" viewBox="0 0 19 19" fill="none" xmlns="http://www.w3.org/2000/svg">
<g id="dollar-sign" clip-path="url(#clip0_1238_1177)">
<path id="Vector" d="M9.38525 1.55762V17.7373" stroke="#131C5F" stroke-width="1.47088" stroke-linecap="round" stroke-linejoin="round"/>
<path id="Vector_2" d="M13.062 4.50073H7.54621C6.86353 4.50073 6.20881 4.77193 5.72609 5.25465C5.24336 5.73738 4.97217 6.39209 4.97217 7.07477C4.97217 7.75745 5.24336 8.41217 5.72609 8.89489C6.20881 9.37762 6.86353 9.64881 7.54621 9.64881H11.2234C11.9061 9.64881 12.5608 9.92 13.0435 10.4027C13.5263 10.8855 13.7974 11.5402 13.7974 12.2229C13.7974 12.9055 13.5263 13.5602 13.0435 14.043C12.5608 14.5257 11.9061 14.7969 11.2234 14.7969H4.97217" stroke="#131C5F" stroke-width="1.47088" stroke-linecap="round" stroke-linejoin="round"/>
</g>
<defs>
<clipPath id="clip0_1238_1177">
<rect width="17.6506" height="17.6506" fill="white" transform="translate(0.560547 0.822754)"/>
</clipPath>
</defs>
</svg>
