<svg width="46" height="55" viewBox="0 0 46 55" fill="none" xmlns="http://www.w3.org/2000/svg">
<g id="Group">
<g id="Group_2">
<g id="Group_3">
<g id="Group_4">
<path id="Vector" d="M18.7148 37.7945C18.1765 37.9291 17.7728 38.0637 17.369 38.3328C16.8307 37.5253 16.427 36.5833 15.8887 35.9103C14.9466 34.5645 13.8699 33.3533 12.9278 32.0075C11.4474 29.9887 10.2362 27.97 9.69786 25.4129C8.48662 19.0876 11.9857 12.8968 18.0419 10.4743C25.9823 7.24432 35.1339 12.6276 36.3451 21.1063C36.8835 25.0092 35.6722 28.2392 33.5189 31.3345C32.5768 32.6804 31.3656 34.0262 30.4235 35.5066C29.7506 36.4487 29.3469 37.3907 28.674 38.3328C28.4048 38.7366 28.1356 39.1403 27.7319 39.2749C24.6365 40.4861 21.5411 41.5628 18.4457 42.6395C18.042 42.774 17.7728 42.6395 17.6382 42.3703C17.5036 41.9665 17.5036 41.5628 17.9074 41.4282C18.1766 41.2936 18.4457 41.159 18.7148 41.159C21.4065 40.217 24.0981 39.2749 26.7898 38.1982C27.0589 38.0637 27.3281 37.7945 27.4627 37.5253C28.5394 35.5066 29.8852 33.8916 31.231 32.0075C32.5768 30.2579 33.7881 28.6429 34.3264 26.4896C35.6722 22.183 34.7302 18.4146 31.7693 15.1847C28.4048 11.4164 24.0982 10.2051 19.2532 11.6855C14.4082 13.1659 11.7166 16.5305 10.7745 21.51C10.1016 25.0092 11.3128 27.97 13.3316 30.6616C14.5428 32.2766 15.7541 33.8916 16.9653 35.5066C17.7728 36.0449 18.1765 36.8524 18.7148 37.7945Z" fill="#6979F8"/>
<path id="Vector_2" d="M18.0419 51.1195C17.9073 50.9849 17.6382 50.8503 17.6382 50.5811C17.6382 50.312 17.7728 50.0428 17.9074 49.7736C17.9074 49.6391 18.1765 49.6391 18.3111 49.6391C21.2719 48.5624 24.3673 47.4857 27.3281 46.4091C28.001 46.1399 28.2702 46.2745 28.4048 46.6782C28.5393 47.082 28.2702 47.4857 27.7319 47.7549C24.6365 48.8316 21.6757 49.9082 18.5803 51.1195C18.4457 50.9849 18.3111 50.9849 18.0419 51.1195Z" fill="#6979F8"/>
<path id="Vector_3" d="M18.0419 46.6778C17.9073 46.5432 17.6382 46.4086 17.6382 46.1394C17.6382 45.8703 17.7728 45.6011 17.9074 45.332C17.9074 45.1974 18.1765 45.1974 18.3111 45.1974C21.2719 44.1207 24.3673 43.0441 27.3281 41.9674C28.001 41.6982 28.2702 41.8328 28.4048 42.2366C28.5393 42.6403 28.4048 43.0441 27.7319 43.3132C24.6365 44.3899 21.6757 45.6011 18.5803 46.6778C18.4457 46.6778 18.3111 46.6778 18.0419 46.6778Z" fill="#6979F8"/>
<path id="Vector_4" d="M27.7308 50.446C26.7887 53.6759 21.54 55.5601 18.3101 53.8105C21.4055 52.7339 24.5008 51.5226 27.7308 50.446Z" fill="#6979F8"/>
<path id="Vector_5" d="M23.6949 3.34277C23.6949 3.8811 23.6949 4.41943 23.6949 4.95776C23.6949 5.3615 23.4258 5.63067 23.022 5.63067C22.6183 5.63067 22.3491 5.3615 22.3491 4.95776C22.3491 3.8811 22.3491 2.80444 22.3491 1.5932C22.3491 1.18945 22.6183 0.920288 23.022 0.920288C23.4258 0.920288 23.6949 1.18945 23.6949 1.5932C23.6949 2.13153 23.6949 2.80444 23.6949 3.34277Z" fill="#6979F8"/>
<path id="Vector_6" d="M3.37266 22.1834C3.91099 22.1834 4.44933 22.1834 4.98766 22.1834C5.52599 22.1834 5.79516 22.4526 5.79516 22.8563C5.79516 23.2601 5.52599 23.5292 4.98766 23.5292C3.91101 23.5292 2.83436 23.5292 1.7577 23.5292C1.21937 23.5292 0.950195 23.2601 0.950195 22.8563C0.950195 22.4526 1.21937 22.1834 1.7577 22.1834C2.29603 22.1834 2.83433 22.1834 3.37266 22.1834Z" fill="#6979F8"/>
<path id="Vector_7" d="M42.6702 23.6649C42.1319 23.6649 41.5936 23.6649 41.0552 23.6649C40.6515 23.6649 40.3823 23.3957 40.3823 22.9919C40.3823 22.5882 40.6515 22.319 41.0552 22.319C42.1319 22.319 43.3431 22.319 44.4198 22.319C44.8235 22.319 45.0927 22.5882 45.0927 22.9919C45.0927 23.3957 44.8235 23.6649 44.4198 23.6649C43.7469 23.6649 43.2086 23.6649 42.6702 23.6649Z" fill="#6979F8"/>
<path id="Vector_8" d="M7.67836 6.84326C7.94753 6.97784 8.0821 7.11243 8.21668 7.24701C9.02418 8.0545 9.6971 8.72741 10.5046 9.53491C10.9083 9.93865 10.9083 10.2078 10.5046 10.6116C10.2354 10.8807 9.83166 10.8807 9.42792 10.6116C8.62042 9.80407 7.81295 9.13116 7.14004 8.32367C7.00546 8.18908 6.87087 7.78534 7.00545 7.51617C7.14003 7.11243 7.54378 6.97784 7.67836 6.84326Z" fill="#6979F8"/>
<path id="Vector_9" d="M35.8065 34.9702C36.0756 35.1047 36.2102 35.2393 36.3448 35.3739C37.1523 36.0468 37.8252 36.8543 38.6327 37.5272C39.0364 37.931 39.0365 38.3347 38.7673 38.6039C38.4981 38.873 38.0944 38.873 37.6906 38.4693C36.8831 37.6618 36.2102 36.9889 35.4027 36.1814C35.2682 36.0468 35.1336 35.6431 35.2681 35.3739C35.2681 35.2393 35.5373 35.1047 35.8065 34.9702Z" fill="#6979F8"/>
<path id="Vector_10" d="M39.038 7.64846C38.9034 7.91762 38.7689 8.0522 38.6343 8.18679C37.8268 8.99428 37.1539 9.66719 36.3464 10.4747C36.0772 10.7438 35.6735 10.8784 35.2697 10.4747C35.0006 10.2055 35.0006 9.80177 35.2697 9.39803C36.0772 8.59053 36.7501 7.78304 37.5576 7.11013C37.6922 6.97555 38.096 6.84096 38.3651 6.97555C38.6343 7.11013 38.7689 7.51387 39.038 7.64846Z" fill="#6979F8"/>
<path id="Vector_11" d="M7.67919 38.8725C7.54461 38.7379 7.27545 38.6034 7.14087 38.3342C7.00629 38.1996 7.14087 37.7959 7.14087 37.6613C7.94836 36.8538 8.75585 35.9117 9.69792 35.1042C9.96709 34.8351 10.3708 34.8351 10.64 35.1042C10.9091 35.3734 10.9091 35.7771 10.64 36.0463C9.83248 36.8538 9.025 37.6613 8.21751 38.4688C8.08293 38.7379 7.94835 38.8725 7.67919 38.8725Z" fill="#6979F8"/>
</g>
</g>
</g>
</g>
</svg>
