<svg width="55" height="55" viewBox="0 0 55 55" fill="none" xmlns="http://www.w3.org/2000/svg">
<g id="Group">
<g id="Group_2">
<g id="Group_3">
<g id="Group_4">
<path id="Vector" d="M52.6406 2.45349C51.8331 2.45349 50.891 2.45349 50.0835 2.45349C44.5657 2.72265 39.317 3.9339 34.3374 6.35638C28.2812 9.1826 23.1671 13.2201 19.1296 18.6034C16.3034 22.2371 14.2847 26.2746 12.8043 30.5812C12.6697 30.8503 12.8043 30.9849 12.9388 31.1195C14.1501 32.3308 15.3613 33.542 16.5726 34.7532C16.7071 34.8878 16.8417 35.157 16.8417 35.4261C16.8417 35.6953 16.7071 35.9645 16.438 36.0991C16.1688 36.2336 15.7651 36.2336 15.6305 35.9645C14.9576 35.2916 14.4192 34.7532 13.7463 34.0803C12.9388 33.2728 12.2659 32.4653 11.4584 31.7924C11.1893 31.5233 11.0547 31.1195 11.1893 30.7158C12.9388 25.4671 15.4959 20.6221 19.1296 16.3155C22.7633 11.8742 27.2046 8.37511 32.1841 5.81805C36.7599 3.39557 41.7394 1.91516 46.8536 1.24225C49.0069 0.973085 51.1602 0.838503 53.3135 0.973085C53.9864 0.973085 54.121 1.24225 54.2556 1.91516C54.5248 10.663 52.3714 18.7379 47.6611 26.2746C42.9507 33.6766 36.4907 39.1945 28.4158 42.6936C27.2046 43.2319 25.8587 43.6357 24.5129 44.174C24.1092 44.3086 23.84 44.3086 23.5708 43.9048C22.225 42.559 20.7446 41.0786 19.3988 39.7328C19.1296 39.4636 18.995 39.0599 19.2642 38.6561C19.5334 38.2524 20.0717 38.2524 20.4754 38.6561C21.6867 39.8674 22.8979 41.0786 24.1092 42.2898C24.3783 42.559 24.5129 42.559 24.7821 42.4244C30.7037 40.4057 35.9524 37.1757 40.3936 32.8691C45.6423 27.755 49.1415 21.6988 51.1602 14.8351C52.2369 11.0668 52.7752 7.16387 52.7752 3.1264C52.7752 2.85724 52.6406 2.72265 52.6406 2.45349Z" fill="#D292FF"/>
</g>
<g id="Group_5">
<path id="Vector_2" d="M45.2389 18.1957C45.2389 22.7715 41.6051 26.4052 37.0293 26.4052C32.4535 26.4052 28.8198 22.7715 28.8198 18.1957C28.8198 13.7545 32.4535 9.98621 36.8948 9.98621C41.6051 9.98621 45.2389 13.6199 45.2389 18.1957ZM43.6239 18.3303C43.6239 14.562 40.6631 11.6012 36.8948 11.6012C33.1265 11.6012 30.1656 14.562 30.1656 18.3303C30.1656 22.0986 33.1265 25.0594 36.8948 25.0594C40.6631 24.9248 43.6239 21.964 43.6239 18.3303Z" fill="#D292FF"/>
</g>
<g id="Group_6">
<path id="Vector_3" d="M24.6497 52.6518C25.5918 52.1134 26.5339 51.4405 27.3414 50.7676C30.033 48.3451 31.5134 45.3843 32.1863 41.8852C32.3209 41.3469 32.5901 41.0777 32.9938 41.0777C33.5321 41.0777 33.8013 41.4814 33.8013 42.0198C33.6667 42.6927 33.5321 43.5002 33.263 44.1731C31.7826 48.7489 29.0909 52.1134 24.9189 54.4013C23.9768 54.9397 23.5731 54.6705 23.4385 53.7284C22.9001 50.9022 22.3618 47.9414 21.8235 45.1152C21.8235 44.846 21.8235 44.5768 21.8235 44.4423C21.9581 44.1731 22.2272 44.0385 22.631 44.0385C22.9001 44.0385 23.1693 44.3077 23.3039 44.5768C23.4385 45.3843 23.5731 46.1918 23.8422 47.1339C23.9768 49.018 24.3805 50.7676 24.6497 52.6518Z" fill="#D292FF"/>
</g>
<g id="Group_7">
<path id="Vector_4" d="M2.44137 30.4422C3.24886 30.5768 4.05636 30.7114 4.72927 30.846C6.61342 31.2497 8.49757 31.5189 10.2471 31.9226C10.3817 31.9226 10.3817 31.9226 10.5163 31.9226C10.9201 32.0572 11.1892 32.461 11.0546 32.8647C10.9201 33.2684 10.6509 33.5376 10.1126 33.403C9.0359 33.1339 7.82466 32.9993 6.748 32.7301C4.99843 32.3264 3.24886 32.0572 1.36471 31.6535C1.23013 31.6535 1.23013 31.6535 1.09555 31.6535C0.422636 31.5189 0.288054 31.1151 0.557218 30.4422C1.36471 28.9618 2.30679 27.4814 3.51803 26.2702C6.07509 23.5785 9.17048 22.0981 12.6696 21.2906C12.8042 21.2906 12.9388 21.2906 12.9388 21.156C13.3425 21.0215 13.7463 21.2906 13.8809 21.6944C14.0154 22.0981 13.7463 22.5019 13.208 22.6364C12.4005 22.9056 11.4584 23.0402 10.6509 23.3094C7.15175 24.5206 4.4601 26.6739 2.44137 29.7693C2.57595 30.1731 2.57595 30.3076 2.44137 30.4422Z" fill="#D292FF"/>
</g>
<g id="Group_8">
<path id="Vector_5" d="M11.9968 42.4241C12.1314 42.2896 12.266 42.0204 12.4006 41.8858C14.9576 39.3288 17.3801 36.9063 19.9372 34.3492C20.8793 33.4071 21.6867 32.5996 22.6288 31.6576C23.0326 31.2538 23.4363 31.2538 23.8401 31.523C24.1092 31.7921 24.1092 32.3305 23.7055 32.7342C20.7447 35.695 17.7839 38.7904 14.6885 41.7512C14.2847 42.155 13.881 42.6933 13.3426 43.0971C13.0735 43.3662 12.8043 43.3662 12.5352 43.2316C12.1314 43.0971 11.9968 42.8279 11.9968 42.4241Z" fill="#D292FF"/>
</g>
<g id="Group_9">
<path id="Vector_6" d="M8.49751 45.9225C8.76667 46.0571 9.03584 46.1916 9.17042 46.4608C9.305 46.73 9.17042 46.9991 9.03584 47.2683C8.90125 47.4029 8.63209 47.6721 8.49751 47.9412C6.88252 49.5562 5.26753 51.3058 3.51796 52.9208C3.2488 53.0553 3.11422 53.1899 2.84505 53.1899C2.57589 53.1899 2.30672 53.0553 2.17214 52.7862C2.03756 52.3824 2.03756 52.1133 2.30672 51.8441C3.38338 50.7674 4.46004 49.6908 5.5367 48.6141C6.34419 47.8066 7.0171 47.1337 7.8246 46.3262C8.09376 46.1916 8.22834 46.0571 8.49751 45.9225Z" fill="#D292FF"/>
</g>
<g id="Group_10">
<path id="Vector_7" d="M7.28682 40.4013C7.95973 40.4013 8.36348 41.0742 8.09432 41.478C7.95973 41.6125 7.95973 41.7471 7.82515 41.8817C6.07558 43.6313 4.32601 45.3808 2.57644 47.1304L2.44186 47.265C2.03811 47.5342 1.63437 47.6687 1.3652 47.265C1.09604 46.9958 1.09604 46.4575 1.3652 46.1883C2.71103 44.8425 4.05685 43.4967 5.40267 42.1509C5.941 41.6125 6.34475 41.2088 6.88308 40.8051C7.01766 40.5359 7.28682 40.4013 7.28682 40.4013Z" fill="#D292FF"/>
</g>
<g id="Group_11">
<path id="Vector_8" d="M14.8231 47.9395C14.8231 48.0741 14.6885 48.2086 14.5539 48.4778C12.6698 50.362 10.9202 52.1115 9.03604 53.9957C8.63229 54.3994 8.22855 54.3994 7.8248 53.9957C7.55563 53.7265 7.55563 53.1882 7.95938 52.919C9.84353 51.0349 11.5931 49.2853 13.4773 47.4012C13.7464 47.132 14.0156 46.9974 14.4193 47.132C14.6885 47.2666 14.8231 47.4012 14.8231 47.9395Z" fill="#D292FF"/>
</g>
</g>
</g>
</g>
</svg>
