<svg width="26" height="26" viewBox="0 0 26 26" fill="none" xmlns="http://www.w3.org/2000/svg">
<g id="Instagram">
<rect width="26" height="26" rx="13" fill="black"/>
<path id="Vector" d="M13.0022 6.60599C15.0864 6.60599 15.3311 6.61528 16.1548 6.65245C16.9167 6.68651 17.3285 6.81348 17.6042 6.92188C17.9696 7.06433 18.2297 7.23156 18.5023 7.50409C18.7748 7.77661 18.9451 8.03675 19.0845 8.40218C19.1898 8.6778 19.3198 9.08969 19.3539 9.85152C19.3911 10.6753 19.4004 10.9199 19.4004 13.0041C19.4004 15.0883 19.3911 15.333 19.3539 16.1568C19.3198 16.9186 19.1929 17.3305 19.0845 17.6061C18.942 17.9715 18.7748 18.2317 18.5023 18.5042C18.2297 18.7767 17.9696 18.947 17.6042 19.0864C17.3285 19.1917 16.9167 19.3218 16.1548 19.3558C15.3311 19.393 15.0864 19.4023 13.0022 19.4023C10.918 19.4023 10.6734 19.393 9.84959 19.3558C9.08775 19.3218 8.67587 19.1948 8.40025 19.0864C8.03482 18.9439 7.77468 18.7767 7.50215 18.5042C7.22963 18.2317 7.0593 17.9715 6.91994 17.6061C6.81465 17.3305 6.68458 16.9186 6.65051 16.1568C6.61335 15.333 6.60406 15.0883 6.60406 13.0041C6.60406 10.9199 6.61335 10.6753 6.65051 9.85152C6.68458 9.08969 6.81155 8.6778 6.91994 8.40218C7.0624 8.03675 7.22963 7.77661 7.50215 7.50409C7.77468 7.23156 8.03482 7.06123 8.40025 6.92188C8.67587 6.81658 9.08775 6.68651 9.84959 6.65245C10.6734 6.61219 10.9211 6.60599 13.0022 6.60599ZM13.0022 5.20001C10.8839 5.20001 10.6176 5.2093 9.78455 5.24647C8.95459 5.28363 8.38786 5.41679 7.89236 5.6088C7.37828 5.807 6.94471 6.07643 6.51115 6.50999C6.07759 6.94355 5.81126 7.38021 5.60996 7.8912C5.41795 8.3867 5.28479 8.95343 5.24763 9.78649C5.21046 10.6164 5.20117 10.8828 5.20117 13.001C5.20117 15.1193 5.21046 15.3856 5.24763 16.2187C5.28479 17.0487 5.41795 17.6154 5.60996 18.114C5.80816 18.6281 6.07759 19.0616 6.51115 19.4952C6.94471 19.9288 7.38137 20.1951 7.89236 20.3964C8.38786 20.5884 8.95459 20.7216 9.78765 20.7587C10.6207 20.7959 10.8839 20.8052 13.0053 20.8052C15.1267 20.8052 15.3899 20.7959 16.223 20.7587C17.0529 20.7216 17.6197 20.5884 18.1183 20.3964C18.6323 20.1982 19.0659 19.9288 19.4995 19.4952C19.933 19.0616 20.1994 18.625 20.4007 18.114C20.5927 17.6185 20.7258 17.0518 20.763 16.2187C20.8001 15.3856 20.8094 15.1224 20.8094 13.001C20.8094 10.8797 20.8001 10.6164 20.763 9.78339C20.7258 8.95343 20.5927 8.3867 20.4007 7.8881C20.2024 7.37402 19.933 6.94046 19.4995 6.50689C19.0659 6.07333 18.6292 5.807 18.1183 5.6057C17.6228 5.4137 17.056 5.28053 16.223 5.24337C15.3868 5.2093 15.1205 5.20001 13.0022 5.20001Z" fill="white"/>
<path id="Vector_2" d="M13.002 8.99677C10.7908 8.99677 8.99463 10.7899 8.99463 13.0041C8.99463 15.2184 10.7877 17.0115 13.002 17.0115C15.2163 17.0115 17.0093 15.2184 17.0093 13.0041C17.0093 10.7899 15.2163 8.99677 13.002 8.99677ZM13.002 15.6024C11.565 15.6024 10.4006 14.438 10.4006 13.001C10.4006 11.5641 11.565 10.3996 13.002 10.3996C14.4389 10.3996 15.6034 11.5641 15.6034 13.001C15.6034 14.438 14.4389 15.6024 13.002 15.6024Z" fill="white"/>
<path id="Vector_3" d="M17.1672 9.771C17.6837 9.771 18.1024 9.35227 18.1024 8.83574C18.1024 8.31921 17.6837 7.90048 17.1672 7.90048C16.6507 7.90048 16.2319 8.31921 16.2319 8.83574C16.2319 9.35227 16.6507 9.771 17.1672 9.771Z" fill="white"/>
</g>
</svg>
