<svg width="24" height="24" viewBox="0 0 24 24" fill="none" xmlns="http://www.w3.org/2000/svg">
<g id="la:street-view">
<path id="Vector" d="M12 3C10.35 3 9 4.35 9 6C9 6.83475 9.35775 7.58775 9.91425 8.133C9.40374 8.4775 8.98522 8.9416 8.69515 9.48488C8.40508 10.0282 8.25226 10.6341 8.25 11.25V14.7188L9.75 15.4688V18.75H14.25V15.4688L15.75 14.7188V11.25C15.7477 10.6341 15.5949 10.0282 15.3049 9.48488C15.0148 8.9416 14.5963 8.4775 14.0858 8.133C14.6423 7.58775 15 6.8355 15 6C15 4.35 13.65 3 12 3ZM12 4.5C12.8378 4.5 13.5 5.16225 13.5 6C13.5 6.83775 12.8378 7.5 12 7.5C11.1622 7.5 10.5 6.83775 10.5 6C10.5 5.16225 11.1622 4.5 12 4.5ZM12 9C13.251 9 14.25 9.999 14.25 11.25V13.7812L12.75 14.5312V17.25H11.25V14.5312L9.75 13.7812V11.25C9.75 9.999 10.749 9 12 9ZM6.75 14.1562C4.5615 14.7682 3 15.8062 3 17.25C3 19.7108 7.52625 21 12 21C16.4738 21 21 19.7108 21 17.25C21 15.8055 19.4385 14.7682 17.25 14.1562V15.7267C18.6765 16.1865 19.5 16.7812 19.5 17.25C19.5 18.1462 16.509 19.5 12 19.5C7.491 19.5 4.5 18.1462 4.5 17.25C4.5 16.7812 5.3235 16.1865 6.75 15.7267V14.1562Z" fill="#131C5F"/>
</g>
</svg>
