<svg width="34" height="30" viewBox="0 0 34 30" fill="none" xmlns="http://www.w3.org/2000/svg">
<path id="Vector" d="M30.333 6.66667H23.6663V3.33333L20.333 0H13.6663L10.333 3.33333V6.66667H3.66634C1.83301 6.66667 0.333008 8.16667 0.333008 10V18.3333C0.333008 19.5833 0.999674 20.6333 1.99967 21.2167V26.6667C1.99967 28.5167 3.48301 30 5.33301 30H28.6663C30.5163 30 31.9997 28.5167 31.9997 26.6667V21.2C32.983 20.6167 33.6663 19.55 33.6663 18.3333V10C33.6663 8.16667 32.1663 6.66667 30.333 6.66667ZM13.6663 3.33333H20.333V6.66667H13.6663V3.33333ZM3.66634 10H30.333V18.3333H21.9997V13.3333H11.9997V18.3333H3.66634V10ZM18.6663 20H15.333V16.6667H18.6663V20ZM28.6663 26.6667H5.33301V21.6667H11.9997V23.3333H21.9997V21.6667H28.6663V26.6667Z" fill="#131C5F"/>
</svg>
