<svg width="24" height="24" viewBox="0 0 24 24" fill="none" xmlns="http://www.w3.org/2000/svg">
<g id="ph:info">
<path id="Vector" d="M11.9998 2.25C10.0715 2.25 8.18639 2.82183 6.58301 3.89317C4.97963 4.96451 3.72995 6.48726 2.992 8.26884C2.25404 10.0504 2.06096 12.0108 2.43716 13.9021C2.81337 15.7934 3.74197 17.5307 5.10553 18.8943C6.46909 20.2579 8.20638 21.1865 10.0977 21.5627C11.989 21.9389 13.9494 21.7458 15.731 21.0078C17.5126 20.2699 19.0353 19.0202 20.1066 17.4168C21.178 15.8134 21.7498 13.9284 21.7498 12C21.7471 9.41498 20.719 6.93661 18.8911 5.10872C17.0632 3.28084 14.5848 2.25273 11.9998 2.25ZM11.9998 20.25C10.3681 20.25 8.77307 19.7661 7.41637 18.8596C6.05966 17.9531 5.00224 16.6646 4.37782 15.1571C3.75339 13.6496 3.59001 11.9908 3.90834 10.3905C4.22667 8.79016 5.01241 7.32015 6.16619 6.16637C7.31997 5.01259 8.78998 4.22685 10.3903 3.90852C11.9907 3.59019 13.6495 3.75357 15.157 4.37799C16.6645 5.00242 17.9529 6.05984 18.8594 7.41655C19.766 8.77325 20.2498 10.3683 20.2498 12C20.2473 14.1873 19.3773 16.2843 17.8307 17.8309C16.2841 19.3775 14.1871 20.2475 11.9998 20.25ZM13.4998 16.5C13.4998 16.6989 13.4208 16.8897 13.2802 17.0303C13.1395 17.171 12.9487 17.25 12.7498 17.25C12.352 17.25 11.9705 17.092 11.6892 16.8107C11.4079 16.5294 11.2498 16.1478 11.2498 15.75V12C11.0509 12 10.8601 11.921 10.7195 11.7803C10.5788 11.6397 10.4998 11.4489 10.4998 11.25C10.4998 11.0511 10.5788 10.8603 10.7195 10.7197C10.8601 10.579 11.0509 10.5 11.2498 10.5C11.6476 10.5 12.0292 10.658 12.3105 10.9393C12.5918 11.2206 12.7498 11.6022 12.7498 12V15.75C12.9487 15.75 13.1395 15.829 13.2802 15.9697C13.4208 16.1103 13.4998 16.3011 13.4998 16.5ZM10.4998 7.875C10.4998 7.6525 10.5658 7.43499 10.6894 7.24998C10.813 7.06498 10.9887 6.92078 11.1943 6.83564C11.3999 6.75049 11.6261 6.72821 11.8443 6.77162C12.0625 6.81502 12.263 6.92217 12.4203 7.0795C12.5777 7.23684 12.6848 7.43729 12.7282 7.65552C12.7716 7.87375 12.7493 8.09995 12.6642 8.30552C12.579 8.51109 12.4348 8.68679 12.2498 8.8104C12.0648 8.93402 11.8473 9 11.6248 9C11.3265 9 11.0403 8.88147 10.8293 8.6705C10.6183 8.45952 10.4998 8.17337 10.4998 7.875Z" fill="#757575"/>
</g>
</svg>
