<svg width="26" height="19" viewBox="0 0 26 19" fill="none" xmlns="http://www.w3.org/2000/svg">
<g id="Group">
<path id="Vector" fill-rule="evenodd" clip-rule="evenodd" d="M0.636718 9.54626C0.636718 9.29173 0.729755 9.04764 0.895361 8.86766C1.06097 8.68769 1.28558 8.58658 1.51978 8.58658L22.3476 8.58658L16.7897 2.54828C16.6238 2.36808 16.5307 2.12368 16.5307 1.86883C16.5307 1.61399 16.6238 1.36958 16.7897 1.18938C16.9555 1.00918 17.1804 0.907941 17.4149 0.907941C17.6494 0.907941 17.8743 1.00918 18.0401 1.18938L25.1046 8.8668C25.1868 8.95595 25.252 9.06185 25.2966 9.17844C25.3411 9.29503 25.364 9.42002 25.364 9.54625C25.364 9.67249 25.3411 9.79748 25.2966 9.91407C25.252 10.0307 25.1868 10.1366 25.1046 10.2257L18.0401 17.9031C17.8743 18.0833 17.6494 18.1846 17.4149 18.1846C17.1804 18.1846 16.9555 18.0833 16.7897 17.9031C16.6238 17.7229 16.5307 17.4785 16.5307 17.2237C16.5307 16.9688 16.6238 16.7244 16.7897 16.5442L22.3476 10.5059L1.51978 10.5059C1.28558 10.5059 1.06097 10.4048 0.895361 10.2248C0.729755 10.0449 0.636718 9.80078 0.636718 9.54626Z" fill="#D4D4D4"/>
</g>
</svg>
