<?xml version="1.0" encoding="UTF-8"?>
<!DOCTYPE svg PUBLIC "-//W3C//DTD SVG 1.1//EN" "http://www.w3.org/Graphics/SVG/1.1/DTD/svg11.dtd">
<svg xmlns="http://www.w3.org/2000/svg" version="1.1" width="512px" height="512px" style="shape-rendering:geometricPrecision; text-rendering:geometricPrecision; image-rendering:optimizeQuality; fill-rule:evenodd; clip-rule:evenodd" xmlns:xlink="http://www.w3.org/1999/xlink">
<g><path style="opacity:0.998" fill="#000000" d="M 511.5,26.5 C 511.5,65.5 511.5,104.5 511.5,143.5C 340.833,143.5 170.167,143.5 -0.5,143.5C -0.5,104.167 -0.5,64.8333 -0.5,25.5C 1.98203,19.5198 6.31536,15.3531 12.5,13C 174.167,12.3333 335.833,12.3333 497.5,13C 504.35,15.3519 509.017,19.8519 511.5,26.5 Z"/></g>
<g><path style="opacity:0.997" fill="#000000" d="M 24.5,168.5 C 178.167,168.5 331.833,168.5 485.5,168.5C 485.667,274.167 485.5,379.834 485,485.5C 482.833,491.667 478.667,495.833 472.5,498C 327.5,498.667 182.5,498.667 37.5,498C 30.9028,495.737 26.7361,491.237 25,484.5C 24.5,379.167 24.3333,273.834 24.5,168.5 Z M 176.5,230.5 C 230.538,230.021 284.538,230.521 338.5,232C 344.492,234.659 348.325,239.159 350,245.5C 350.955,261.9 350.622,278.234 349,294.5C 346.101,301.4 340.934,305.234 333.5,306C 279.788,306.983 226.122,306.649 172.5,305C 165.138,302.458 160.972,297.292 160,289.5C 159.333,275.5 159.333,261.5 160,247.5C 160.856,243.456 162.522,239.789 165,236.5C 168.575,233.798 172.408,231.798 176.5,230.5 Z"/></g>
</svg>
