<svg width="16" height="17" viewBox="0 0 16 17" fill="none" xmlns="http://www.w3.org/2000/svg">
<g id="Group">
<path id="Vector" d="M0.114258 16.5633L1.22894 12.5155C0.539794 11.3274 0.178276 9.98193 0.182042 8.60644C0.182042 4.29635 3.70684 0.792053 8.03375 0.792053C10.1351 0.792053 12.1083 1.60535 13.5883 3.08203C15.072 4.5587 15.8892 6.52261 15.8854 8.61019C15.8854 12.9203 12.3607 16.4246 8.02998 16.4246H8.02621C6.71195 16.4246 5.42028 16.0948 4.27171 15.4726L0.114258 16.5633ZM4.47129 14.0597L4.70854 14.2021C5.71024 14.7942 6.85881 15.1053 8.02998 15.1091H8.03375C11.6301 15.1091 14.5599 12.1969 14.5599 8.61394C14.5599 6.87866 13.882 5.24832 12.6506 4.019C11.4192 2.78969 9.77731 2.11507 8.03375 2.11507C4.4374 2.11132 1.50761 5.02344 1.50761 8.60644C1.50761 9.83201 1.85029 11.0276 2.50554 12.062L2.65994 12.3094L2.00093 14.7043L4.47129 14.0597Z" fill="white"/>
<path id="Vector_2" d="M0.38916 16.2897L1.46618 12.3806C0.799633 11.2375 0.449413 9.93695 0.449413 8.61019C0.453179 4.45001 3.8537 1.06564 8.03374 1.06564C10.0635 1.06564 11.9652 1.8527 13.3962 3.27691C14.8273 4.70112 15.6143 6.59756 15.6143 8.61393C15.6143 12.7741 12.21 16.1585 8.03374 16.1585H8.02998C6.7609 16.1585 5.51442 15.8399 4.40727 15.2402L0.38916 16.2897Z" fill="url(#paint0_linear_75_342)"/>
<path id="Vector_3" d="M0.114258 16.5633L1.22894 12.5155C0.539794 11.3274 0.178276 9.98193 0.182042 8.60644C0.182042 4.29635 3.70684 0.792053 8.03375 0.792053C10.1351 0.792053 12.1083 1.60535 13.5883 3.08203C15.072 4.5587 15.8892 6.52261 15.8854 8.61019C15.8854 12.9203 12.3607 16.4246 8.02998 16.4246H8.02621C6.71195 16.4246 5.42028 16.0948 4.27171 15.4726L0.114258 16.5633ZM4.47129 14.0597L4.70854 14.2021C5.71024 14.7942 6.85881 15.1053 8.02998 15.1091H8.03375C11.6301 15.1091 14.5599 12.1969 14.5599 8.61394C14.5599 6.87866 13.882 5.24832 12.6506 4.019C11.4192 2.78969 9.77731 2.11507 8.03375 2.11507C4.4374 2.11132 1.50761 5.02344 1.50761 8.60644C1.50761 9.83201 1.85029 11.0276 2.50554 12.062L2.65994 12.3094L2.00093 14.7043L4.47129 14.0597Z" fill="url(#paint1_linear_75_342)"/>
<path id="Vector_4" fill-rule="evenodd" clip-rule="evenodd" d="M6.0719 5.33828C5.92503 5.01221 5.77064 5.00472 5.6313 5.00097C5.51833 4.99722 5.38652 4.99722 5.25472 4.99722C5.12292 4.99722 4.91203 5.04595 4.73127 5.24084C4.55052 5.43573 4.0459 5.90796 4.0459 6.87118C4.0459 7.83064 4.7501 8.76012 4.84801 8.8913C4.94593 9.02248 6.20747 11.0576 8.19958 11.8409C9.85653 12.493 10.1955 12.3619 10.5532 12.3281C10.911 12.2944 11.7131 11.8559 11.8788 11.3987C12.0407 10.9414 12.0407 10.5516 11.9917 10.4692C11.9428 10.3867 11.811 10.338 11.6152 10.2405C11.4193 10.1431 10.4553 9.67087 10.2745 9.6034C10.0938 9.53969 9.96198 9.50596 9.83394 9.70085C9.70214 9.89574 9.32556 10.3342 9.21258 10.4654C9.09961 10.5966 8.98287 10.6116 8.78705 10.5141C8.59122 10.4167 7.95857 10.2106 7.20917 9.54344C6.62547 9.02623 6.23006 8.38533 6.11709 8.19044C6.00412 7.99555 6.10579 7.89061 6.2037 7.79316C6.29032 7.70696 6.39953 7.56454 6.49744 7.4521C6.59535 7.33967 6.62924 7.25721 6.69326 7.12604C6.75728 6.99486 6.72715 6.88242 6.6782 6.78498C6.62924 6.69128 6.24513 5.72432 6.0719 5.33828Z" fill="white"/>
</g>
<defs>
<linearGradient id="paint0_linear_75_342" x1="8.00134" y1="16.2889" x2="8.00134" y2="1.06511" gradientUnits="userSpaceOnUse">
<stop stop-color="#20B038"/>
<stop offset="1" stop-color="#60D66A"/>
</linearGradient>
<linearGradient id="paint1_linear_75_342" x1="8.00139" y1="16.5618" x2="8.00139" y2="0.792053" gradientUnits="userSpaceOnUse">
<stop stop-color="#F9F9F9"/>
<stop offset="1" stop-color="white"/>
</linearGradient>
</defs>
</svg>
