<svg width="55" height="27" viewBox="0 0 55 27" fill="none" xmlns="http://www.w3.org/2000/svg">
<g id="Group">
<g id="Group_2">
<g id="Group_3">
<g id="Group_4">
<path id="Vector" d="M10.2884 8.90845C9.88461 9.17761 9.61549 9.44677 9.07716 9.71594C7.73134 10.3888 6.38549 10.7926 5.17425 11.6001C2.75177 13.2151 2.75173 15.2338 5.30879 16.5796C7.86586 17.9255 10.5575 18.8675 13.3837 19.4059C16.8829 20.0788 20.382 20.3479 24.0158 20.7517C25.4962 20.8863 26.9766 20.7517 28.5916 20.7517C28.5916 19.675 28.7261 18.5984 28.7261 17.2525C30.3411 19.1367 31.6869 20.7517 33.1673 22.3667C31.9561 23.5779 30.4757 25.0583 28.7261 26.9425C28.7261 25.5966 28.5916 24.6546 28.5916 23.7125C24.6887 23.4433 20.7858 23.1742 17.0175 22.7704C12.5763 22.2321 8.26962 21.4246 4.23215 19.2713C2.48258 18.3292 0.463867 17.2525 0.463867 14.9646C0.463867 12.5422 2.48258 11.4655 4.23215 10.5234C5.98172 9.58136 7.86592 9.04303 9.75008 8.23553C10.0192 8.5047 10.1538 8.77386 10.2884 8.90845Z" fill="#F5167E"/>
<path id="Vector_2" d="M35.7233 23.0406C35.4542 20.349 35.4541 20.4836 37.6074 20.0798C41.1066 19.2723 44.6057 18.3302 47.9703 17.2536C49.4507 16.8498 50.9311 15.7732 50.9311 14.0236C50.9311 12.274 49.3162 11.6011 48.1049 10.9282C47.1628 10.3899 46.2207 10.1207 45.2786 9.71698C44.8749 9.58239 44.6058 9.17865 44.4712 8.64032C47.7012 9.31323 50.6619 10.1207 53.0844 12.5432C54.5648 14.0236 54.5648 15.7732 53.0844 17.2536C52.2769 18.0611 51.3349 18.734 50.2582 19.2723C45.817 21.5602 40.8375 22.3677 35.7233 23.0406Z" fill="#F5167E"/>
<path id="Vector_3" d="M44.8766 0.430908C43.5307 0.430908 42.4541 1.50757 42.4541 2.85339C42.4541 4.19921 43.5307 5.27587 44.8766 5.27587C46.2224 5.27587 47.299 4.19921 47.299 2.85339C47.299 1.50757 46.2224 0.430908 44.8766 0.430908ZM44.8766 3.79546C44.3382 3.79546 43.7999 3.39172 43.7999 2.71881C43.7999 2.18048 44.2037 1.64215 44.8766 1.64215C45.4149 1.64215 45.9532 2.0459 45.9532 2.71881C45.9532 3.39172 45.4149 3.79546 44.8766 3.79546Z" fill="#F5167E"/>
<g id="Group_5">
<path id="Vector_4" d="M20.7866 10.6587C20.7866 12.9466 19.0371 14.6962 16.6146 14.6962C14.3267 14.6962 12.5771 13.0812 12.5771 10.7933H14.5959C14.7305 12.0046 15.5379 12.8121 16.7492 12.8121C17.9604 12.8121 18.9025 11.87 18.9025 10.5242C18.9025 9.17833 17.9605 8.37084 16.4801 8.37084H14.9996V7.96709L17.5567 4.06421H12.9809V2.31464H20.5175V2.71838L17.8259 6.89043C19.4409 7.29418 20.7866 8.77458 20.7866 10.6587Z" fill="#F5167E"/>
<path id="Vector_5" d="M31.4171 10.5253C31.4171 12.9478 29.5329 14.8319 26.9759 14.8319C24.2842 14.8319 22.5347 13.0824 22.5347 10.5253C22.5347 9.44866 22.9384 8.10283 23.8805 6.48785L26.303 2.18121H28.4562C26.9758 4.73828 26.4376 5.81494 25.8992 6.75701C26.4376 6.62243 26.8413 6.48785 27.3796 6.48785C29.5329 6.48785 31.4171 8.10283 31.4171 10.5253ZM29.3983 10.5253C29.3983 9.04491 28.3217 8.10283 26.9759 8.10283C25.4955 8.10283 24.5534 9.04491 24.5534 10.5253C24.5534 11.8711 25.63 12.9478 26.9759 12.9478C28.3217 12.9478 29.3983 11.8711 29.3983 10.5253Z" fill="#F5167E"/>
<path id="Vector_6" d="M32.7637 8.3709C32.7637 4.46801 34.6478 2.04553 37.6086 2.04553C40.5694 2.04553 42.4536 4.46801 42.4536 8.3709C42.4536 12.2738 40.5694 14.6963 37.6086 14.6963C34.6478 14.6963 32.7637 12.2738 32.7637 8.3709ZM40.4349 8.3709C40.4349 5.54467 39.3582 3.92968 37.6086 3.92968C35.859 3.92968 34.7824 5.54467 34.7824 8.3709C34.7824 11.1971 35.859 12.8121 37.6086 12.8121C39.3582 12.9467 40.4349 11.1971 40.4349 8.3709Z" fill="#F5167E"/>
</g>
</g>
</g>
</g>
</g>
</svg>
