<svg width="40" height="40" viewBox="0 0 40 40" fill="none" xmlns="http://www.w3.org/2000/svg">
<g id="photo Fill">
<g id="Icon">
<path d="M19.9997 12.4997C19.9997 10.1985 21.8652 8.33305 24.1664 8.33305C26.4676 8.33305 28.333 10.1985 28.333 12.4997C28.333 14.8009 26.4676 16.6664 24.1664 16.6664C21.8652 16.6664 19.9997 14.8009 19.9997 12.4997Z" fill="#7C8B9D"/>
<path fill-rule="evenodd" clip-rule="evenodd" d="M16.5935 1.66638C14.3217 1.66637 12.515 1.66636 11.0573 1.78545C9.56468 1.90741 8.29189 2.16251 7.12648 2.75632C5.24486 3.71505 3.71505 5.24486 2.75632 7.12648C2.16251 8.29189 1.90741 9.56468 1.78545 11.0573C1.66636 12.515 1.66637 14.3217 1.66638 16.5935V23.406C1.66637 25.6777 1.66636 27.4844 1.78545 28.9421C1.90741 30.4348 2.16251 31.7075 2.75632 32.873C3.71505 34.7546 5.24486 36.2844 7.12648 37.2431C8.29189 37.8369 9.56468 38.092 11.0573 38.214C12.515 38.3331 14.3216 38.3331 16.5933 38.333H23.406C25.6777 38.3331 27.4845 38.3331 28.9421 38.214C30.4348 38.092 31.7075 37.8369 32.873 37.2431C34.7546 36.2844 36.2844 34.7546 37.2431 32.873C37.8369 31.7075 38.092 30.4348 38.214 28.9421C38.3331 27.4845 38.3331 25.6778 38.333 23.4062V16.5934C38.3331 14.3218 38.3331 12.515 38.214 11.0573C38.092 9.56468 37.8369 8.29189 37.2431 7.12648C36.2844 5.24486 34.7546 3.71505 32.873 2.75632C31.7075 2.16251 30.4348 1.90741 28.9421 1.78545C27.4844 1.66636 25.6777 1.66637 23.406 1.66638H16.5935ZM8.63978 5.72634C9.25697 5.41187 10.0423 5.21283 11.3288 5.10772C12.6348 5.00101 14.3053 4.99972 16.6664 4.99972H23.333C25.6941 4.99972 27.3647 5.00101 28.6706 5.10772C29.9572 5.21283 30.7425 5.41187 31.3597 5.72634C32.6141 6.3655 33.6339 7.38537 34.2731 8.63978C34.5876 9.25697 34.7866 10.0423 34.8917 11.3288C34.9984 12.6348 34.9997 14.3053 34.9997 16.6664V23.333C34.9997 23.9304 34.9996 24.4836 34.9978 24.9978L32.3567 22.3567C31.055 21.055 28.9444 21.055 27.6427 22.3567L23.9223 26.0771C23.5969 26.4026 23.0692 26.4026 22.7438 26.0771L12.3567 15.6901C11.055 14.3883 8.94444 14.3883 7.6427 15.6901L4.99972 18.333V16.6664C4.99972 14.3053 5.00101 12.6348 5.10772 11.3288C5.21283 10.0423 5.41187 9.25697 5.72634 8.63978C6.3655 7.38537 7.38537 6.3655 8.63978 5.72634Z" fill="#7C8B9D"/>
<path d="M19.9997 12.4997C19.9997 10.1985 21.8652 8.33305 24.1664 8.33305C26.4676 8.33305 28.333 10.1985 28.333 12.4997C28.333 14.8009 26.4676 16.6664 24.1664 16.6664C21.8652 16.6664 19.9997 14.8009 19.9997 12.4997Z" stroke="#7C8B9D" stroke-width="1.67"/>
<path fill-rule="evenodd" clip-rule="evenodd" d="M16.5935 1.66638C14.3217 1.66637 12.515 1.66636 11.0573 1.78545C9.56468 1.90741 8.29189 2.16251 7.12648 2.75632C5.24486 3.71505 3.71505 5.24486 2.75632 7.12648C2.16251 8.29189 1.90741 9.56468 1.78545 11.0573C1.66636 12.515 1.66637 14.3217 1.66638 16.5935V23.406C1.66637 25.6777 1.66636 27.4844 1.78545 28.9421C1.90741 30.4348 2.16251 31.7075 2.75632 32.873C3.71505 34.7546 5.24486 36.2844 7.12648 37.2431C8.29189 37.8369 9.56468 38.092 11.0573 38.214C12.515 38.3331 14.3216 38.3331 16.5933 38.333H23.406C25.6777 38.3331 27.4845 38.3331 28.9421 38.214C30.4348 38.092 31.7075 37.8369 32.873 37.2431C34.7546 36.2844 36.2844 34.7546 37.2431 32.873C37.8369 31.7075 38.092 30.4348 38.214 28.9421C38.3331 27.4845 38.3331 25.6778 38.333 23.4062V16.5934C38.3331 14.3218 38.3331 12.515 38.214 11.0573C38.092 9.56468 37.8369 8.29189 37.2431 7.12648C36.2844 5.24486 34.7546 3.71505 32.873 2.75632C31.7075 2.16251 30.4348 1.90741 28.9421 1.78545C27.4844 1.66636 25.6777 1.66637 23.406 1.66638H16.5935ZM8.63978 5.72634C9.25697 5.41187 10.0423 5.21283 11.3288 5.10772C12.6348 5.00101 14.3053 4.99972 16.6664 4.99972H23.333C25.6941 4.99972 27.3647 5.00101 28.6706 5.10772C29.9572 5.21283 30.7425 5.41187 31.3597 5.72634C32.6141 6.3655 33.6339 7.38537 34.2731 8.63978C34.5876 9.25697 34.7866 10.0423 34.8917 11.3288C34.9984 12.6348 34.9997 14.3053 34.9997 16.6664V23.333C34.9997 23.9304 34.9996 24.4836 34.9978 24.9978L32.3567 22.3567C31.055 21.055 28.9444 21.055 27.6427 22.3567L23.9223 26.0771C23.5969 26.4026 23.0692 26.4026 22.7438 26.0771L12.3567 15.6901C11.055 14.3883 8.94444 14.3883 7.6427 15.6901L4.99972 18.333V16.6664C4.99972 14.3053 5.00101 12.6348 5.10772 11.3288C5.21283 10.0423 5.41187 9.25697 5.72634 8.63978C6.3655 7.38537 7.38537 6.3655 8.63978 5.72634Z" stroke="#7C8B9D" stroke-width="1.67"/>
</g>
</g>
</svg>
