<?xml version="1.0" encoding="UTF-8"?>
<!DOCTYPE svg PUBLIC "-//W3C//DTD SVG 1.1//EN" "http://www.w3.org/Graphics/SVG/1.1/DTD/svg11.dtd">
<svg xmlns="http://www.w3.org/2000/svg" version="1.1" width="512px" height="512px" style="shape-rendering:geometricPrecision; text-rendering:geometricPrecision; image-rendering:optimizeQuality; fill-rule:evenodd; clip-rule:evenodd" xmlns:xlink="http://www.w3.org/1999/xlink">
<g><path style="opacity:0.989" fill="#000000" d="M 248.5,-0.5 C 253.167,-0.5 257.833,-0.5 262.5,-0.5C 326.363,22.7351 390.363,45.9018 454.5,69C 462.493,72.3262 467.659,78.1595 470,86.5C 470.667,148.5 470.667,210.5 470,272.5C 466.285,305.315 455.618,335.648 438,363.5C 418.471,393.371 394.971,419.871 367.5,443C 335.345,469.656 300.678,492.49 263.5,511.5C 258.5,511.5 253.5,511.5 248.5,511.5C 192.339,482.872 142.839,445.205 100,398.5C 46.4281,335.257 26.5948,262.257 40.5,179.5C 40.6667,148.833 40.8333,118.167 41,87.5C 44.3111,76.7384 51.4777,69.9051 62.5,67C 124.637,44.5685 186.637,22.0685 248.5,-0.5 Z M 250.5,42.5 C 252.167,42.5 253.833,42.5 255.5,42.5C 255.5,113.167 255.5,183.833 255.5,254.5C 197.833,254.5 140.167,254.5 82.5,254.5C 82.3333,206.166 82.5,157.832 83,109.5C 85.6578,103.741 90.1578,100.241 96.5,99C 148.047,80.4322 199.38,61.5989 250.5,42.5 Z M 255.5,255.5 C 313.5,255.5 371.5,255.5 429.5,255.5C 429.063,284.645 421.229,311.645 406,336.5C 385.769,367.404 361.269,394.57 332.5,418C 310.201,435.154 286.868,450.82 262.5,465C 260.26,465.977 257.927,466.477 255.5,466.5C 255.5,396.167 255.5,325.833 255.5,255.5 Z"/></g>
</svg>
